<?xml version="1.0" encoding="utf-8"?>
<!-- Generator: Adobe Illustrator 15.0.0, SVG Export Plug-In . SVG Version: 6.00 Build 0)  -->
<!DOCTYPE svg PUBLIC "-//W3C//DTD SVG 1.1//EN" "http://www.w3.org/Graphics/SVG/1.1/DTD/svg11.dtd">
<svg version="1.1" xmlns="http://www.w3.org/2000/svg" xmlns:xlink="http://www.w3.org/1999/xlink" x="0px" y="0px"
	 width="100.833px" height="60.833px" viewBox="0 0 100.833 60.833" enable-background="new 0 0 100.833 60.833"
	 xml:space="preserve">
<g id="Pfeil">
	<g>
		<g>
			<line fill="#209DD4" x1="43.292" y1="53.46" x2="74.387" y2="10.434"/>
			<polygon fill="#209DD4" points="77.282,6.428 75.508,13.74 74.17,10.734 70.896,10.407 			"/>
		</g>
		<g>
			
				<line fill="none" stroke="#39A9DC" stroke-width="2" stroke-linecap="round" stroke-miterlimit="10" x1="43.292" y1="53.46" x2="74.387" y2="10.434"/>
			<polygon fill="#39A9DC" points="80.177,2.422 76.629,17.046 73.954,11.034 67.405,10.38 			"/>
		</g>
	</g>
	<g>
		<path fill="none" stroke="#39A9DC" stroke-width="2" stroke-linecap="round" stroke-miterlimit="10" d="M81.324,11.131"/>
	</g>
</g>
<g id="Kreis">
	<path fill="#003161" d="M84.914,51.675c5.581-7.182-14.929-17.813-19.568-20.667c-7.412-4.559-14.243-8.752-22.117-10.853
		c-4.578-1.222-12.104-4.107-16.381-0.436c-7.17,6.156,16.419,20.23,20.203,22.516c10.453,6.313,23.788,15.111,35.842,10.881
		c2.115-0.742,3.17-2.481,0.29-1.781c-10.658,2.591-23.268-2.308-32.645-7.147c-8.593-4.435-17.385-11.726-22.16-20.402
		c-2.832-5.148,9.859-3.263,7.54-3.594c-3.505-0.5,6.656,1.505,10.331,2.769c8.775,3.018,13.305,4.622,19.097,8.047
		c4.175,2.469,7.234,5.751,10.806,9.025c2.264,2.075,9.932,9.907,5.645,11.517c-1.755,0.659,1.388,0.795,2.42,0.063L84.914,51.675z"
		/>
	<g>
		<path fill="#69398B" d="M9.744,25.476c0,0.468-0.383,0.851-0.851,0.851H8.32c-0.468,0-0.851-0.383-0.851-0.851V24.49
			c0-0.468,0.383-0.851,0.851-0.851h0.573c0.468,0,0.851,0.383,0.851,0.851V25.476z"/>
	</g>
	<g>
		<path fill="#69398B" d="M6.179,29.31c0,0.468-0.383,0.851-0.851,0.851H4.755c-0.468,0-0.851-0.383-0.851-0.851v-0.986
			c0-0.468,0.383-0.851,0.851-0.851h0.573c0.468,0,0.851,0.383,0.851,0.851V29.31z"/>
	</g>
	<g>
		<path fill="#69398B" d="M6.661,25.476c0,0.468-0.383,0.851-0.851,0.851H5.237c-0.468,0-0.851-0.383-0.851-0.851V24.49
			c0-0.468,0.383-0.851,0.851-0.851h0.573c0.468,0,0.851,0.383,0.851,0.851V25.476z"/>
	</g>
	<g>
		<path fill="#69398B" d="M5.799,22.073c0,0.468-0.383,0.851-0.851,0.851H4.375c-0.468,0-0.851-0.383-0.851-0.851v-0.986
			c0-0.468,0.383-0.851,0.851-0.851h0.573c0.468,0,0.851,0.383,0.851,0.851V22.073z"/>
	</g>
</g>
<g id="Entwurf_Oval" display="none">
	<path display="inline" fill="#A10D59" d="M84.857,52.293c5.581-7.182-12.98-18.698-17.62-21.551
		c-7.248-4.458-15.16-7.717-23.369-9.907c-4.578-1.222-12.104-4.107-16.381-0.436c-7.17,6.156,14.805,20.695,18.589,22.98
		c10.453,6.313,24.558,12.249,37.028,10c0.775-0.14,2.316-1.651,0.719-1.363c-10.794,1.947-22.62-3.056-31.997-7.896
		c-8.593-4.435-18.033-10.977-22.808-19.654c-2.804-5.096,4.707-4.172,7.54-3.594c3.469,0.708,6.958,1.712,10.331,2.769
		c6.438,2.015,12.535,5.018,18.328,8.443c4.175,2.469,8.003,5.355,11.575,8.629c2.264,2.075,8.972,8.125,6.162,11.741
		C82.14,53.501,84.457,52.809,84.857,52.293L84.857,52.293z"/>
</g>
<g id="weg_damit" display="none">
	
		<ellipse transform="matrix(-0.8192 -0.5736 0.5736 -0.8192 80.2239 99.277)" display="inline" fill="none" stroke="#A10D59" stroke-width="2" cx="55.763" cy="36.991" rx="29.053" ry="11.906"/>
</g>
<g id="DAPHNE">
	<g>
		<g>
			<path fill="#69398B" d="M7.173,27.383c1.344-0.216,3.096-0.36,4.92-0.36c3.096,0,5.113,0.576,6.649,1.728
				c1.68,1.248,2.736,3.24,2.736,6.097c0,3.096-1.128,5.232-2.664,6.553c-1.704,1.416-4.32,2.088-7.489,2.088
				c-1.896,0-1.896,0-1.896,0C8.188,43.357,7.173,36.109,7.173,27.383L7.173,27.383z M10.822,40.561
				c0.312,0.072,0.84,0.072,1.272,0.072c3.336,0.024,5.521-1.8,5.521-5.664c0-3.36-1.968-5.137-5.136-5.137
				c-0.792,0-0.792,0-0.792,0C11.21,29.911,10.822,34.739,10.822,40.561L10.822,40.561z"/>
		</g>
	</g>
	<g>
		<g>
			<path fill="#69398B" d="M28.68,39.168c-0.78,0-1.588,0.615-1.796,1.366l-0.395,1.421c-0.208,0.751-1.017,1.366-1.796,1.366
				h-0.933c-0.78,0-1.232-0.61-1.005-1.356L26.85,28.5c0.227-0.746,1.05-1.356,1.83-1.356h1.965c0.78,0,1.607,0.609,1.839,1.353
				l4.198,13.471c0.231,0.744-0.216,1.353-0.996,1.353H34.56c-0.78,0-1.601-0.611-1.825-1.357l-0.433-1.438
				c-0.224-0.747-1.045-1.357-1.825-1.357H28.68z M29.949,36.432c0.78,0,1.238-0.612,1.018-1.36l-0.209-0.712
				c-0.22-0.748-0.564-1.976-0.765-2.729c0,0-0.211-0.791-0.451-1.751l0,0c-0.026,0-0.185,0.623-0.353,1.384
				c0,0-0.176,0.8-0.439,1.736l-0.579,2.067c-0.21,0.75,0.256,1.365,1.036,1.365H29.949z"/>
		</g>
	</g>
	<g>
		<g>
			<path fill="#003161" d="M38.638,27.568c1.128-0.192,3.312-0.544,5.544-0.544c2.256,0,3.864,0.432,4.944,1.296
				c1.056,0.816,1.728,2.16,1.728,3.745c0,1.584-0.504,2.952-1.488,3.84c-1.248,1.152-3.096,1.704-5.256,1.704
				c-0.48,0-0.912-0.024-1.248-0.096l0.371,4.564c0.063,0.777-0.523,1.413-1.303,1.413h-0.878c-0.78,0-1.458-0.637-1.506-1.415
				L38.638,27.568z M42.862,34.704c0.312,0.072,0.672,0.096,1.224,0.096c1.944,0,3.144-0.984,3.144-2.616
				c0-1.488-1.032-2.376-2.88-2.376c-0.72,0-0.72,0-0.72,0c-0.653,0.163-1.13,0.931-1.059,1.708L42.862,34.704z"/>
		</g>
	</g>
	<g>
		<g>
			<path fill="#003161" d="M55.875,27.144c0.78,0,1.37,0.636,1.312,1.414l-0.229,3.063c-0.058,0.777,0.532,1.414,1.312,1.414h3.189
				c0.78,0,1.372-0.636,1.316-1.414l-0.22-3.063c-0.056-0.777,0.536-1.414,1.316-1.414h1.237c0.78,0,1.417,0.638,1.417,1.417v13.342
				c0,0.78-0.638,1.417-1.417,1.417h-0.813c-0.78,0-1.417-0.638-1.417-1.417v-4.217c0-0.78-0.638-1.417-1.417-1.417h-2.75
				c-0.78,0-1.386,0.637-1.347,1.416l0.221,4.389c0.039,0.778-0.567,1.416-1.347,1.416H55.36c-0.78,0-1.446-0.637-1.481-1.416
				L53.269,28.56c-0.035-0.779,0.574-1.416,1.354-1.416H55.875z"/>
		</g>
	</g>
	<g>
		<path fill="#209DD4" d="M70.302,43.489c-0.78,0-1.385-0.637-1.345-1.416l0.688-13.514c0.04-0.778,0.71-1.416,1.49-1.416h1.438
			c0.78,0,1.732,0.555,2.116,1.233l1.963,3.462c0.384,0.678,0.988,1.801,1.342,2.496c0,0,1.252,2.458,1.997,4.282l0,0
			c0.026,0,0.006-0.636-0.046-1.414c0,0-0.194-2.906-0.194-5.354l-0.316-3.293c-0.075-0.776,0.502-1.411,1.282-1.411h1.421
			c0.78,0,1.4,0.638,1.378,1.417L83.15,41.904c-0.021,0.779-0.677,1.417-1.457,1.417h-1.006c-0.78,0-1.727-0.558-2.104-1.24
			L76.5,38.32c-0.377-0.682-0.987-1.802-1.354-2.49c0,0-1.372-2.566-2.14-4.462l0,0c-0.053,0-0.072,0.637-0.042,1.417
			c0,0,0.114,3.024,0.114,5.664l-0.02,3.623c-0.004,0.78-0.646,1.417-1.425,1.417H70.302z"/>
	</g>
	<g>
		<g>
			<path fill="#209DD4" d="M95.902,35.063c0,0.78-0.638,1.417-1.417,1.417h-3.118c-0.78,0-1.417,0.638-1.417,1.417v1.005
				c0,0.78,0.638,1.417,1.417,1.417h3.814c0.779,0,1.417,0.638,1.417,1.417v0.166c0,0.78-0.638,1.417-1.417,1.417h-7.304
				c-0.78,0-1.417-0.61-1.417-1.355c0-0.746,0.03-1.993,0.066-2.771l0.019-0.391c0.037-0.778,0.125-2.051,0.198-2.827l0.29-3.101
				c0.072-0.776,0.242-1.95,0.377-2.608c0.135-0.658,0.404-1.63,0.598-2.161c0.194-0.53,0.991-0.963,1.771-0.963h5.068
				c0.779,0,1.417,0.638,1.417,1.417v0.165c0,0.78-0.638,1.417-1.417,1.417h-3.479c-0.78,0-1.417,0.638-1.417,1.417v0.525
				c0,0.78,0.638,1.417,1.417,1.417h3.118c0.779,0,1.417,0.638,1.417,1.417V35.063z"/>
		</g>
	</g>
	
		<rect x="60.372" y="27.679" transform="matrix(-0.5737 0.8191 -0.8191 -0.5737 119.8319 -5.0654)" fill="#39A9DC" width="1.723" height="1.945"/>
	<g>
		<g>
			<path fill="#003161" d="M27.236,54.111c-0.329-0.329-0.176-1.85-0.176-1.85s-2.673,0.451-3.33-0.096
				c-0.3-0.25-0.124-1.092-0.124-1.092s1.895-3.896,3.091-4.591c0.453-0.264,2.09-0.158,2.09-0.158v4.57c0,0,0.76-0.163,0.923,0
				c0.242,0.242,0.266,1.152,0,1.367c-0.18,0.145-0.923,0-0.923,0v1.859C28.787,54.12,27.541,54.416,27.236,54.111z M27.06,50.894
				c0.169-0.388,0-1.727,0-1.727c0-0.468,0.024-0.948,0.048-1.451h-0.036c-0.252,0.503-0.468,0.959-0.732,1.451
				c0,0-0.791,1.267-1.031,1.703c-0.003,0.006-0.012,0.024-0.012,0.024S26.883,51.298,27.06,50.894z"/>
		</g>
		<g>
			<g>
				<path fill="#003161" d="M32.26,54.249c-0.561,0-0.987-0.637-0.947-1.416l0.263-5.169c0.04-0.778,0.543-1.416,1.118-1.416
					c0.575,0,1.36,0.555,1.745,1.233l0.247,0.436c0.384,0.678,0.988,1.801,1.342,2.496c0,0,0.285,0.559,0.649,1.451l0,0
					c0.013,0-0.019-0.636-0.07-1.414c0,0-0.047-0.7-0.047-1.899l-0.086-0.892c-0.075-0.776,0.333-1.411,0.906-1.411
					c0.573,0,1.024,0.638,1.002,1.417l-0.139,5.084c-0.021,0.779-0.462,1.417-0.979,1.417s-1.249-0.558-1.626-1.24l-0.318-0.575
					c-0.377-0.682-0.987-1.802-1.354-2.49c0,0-0.33-0.618-0.707-1.546l0,0c-0.026,0-0.023,0.637,0.006,1.417
					c0,0,0.029,0.757,0.029,2.049l-0.006,1.05C33.283,53.611,32.821,54.249,32.26,54.249z"/>
			</g>
		</g>
		<g>
			<g>
				<path fill="#003161" d="M45.727,46.424c0.653-0.105,1.504-0.175,2.391-0.175c1.504,0,2.484,0.28,3.23,0.839
					c0.816,0.607,1.33,1.575,1.33,2.962c0,1.504-0.548,2.542-1.294,3.184c-0.828,0.688-2.1,1.014-3.639,1.014
					c-0.921,0-0.921,0-0.921,0C46.22,54.185,45.727,50.664,45.727,46.424L45.727,46.424z M47.499,52.826
					c0.152,0.035,0.409,0.035,0.618,0.035c1.621,0.012,2.682-0.874,2.682-2.751c0-1.633-0.956-2.496-2.496-2.496
					c-0.384,0-0.384,0-0.384,0C47.688,47.652,47.499,49.998,47.499,52.826L47.499,52.826z"/>
			</g>
		</g>
		<g>
			<g>
				<path fill="#003161" d="M44.252,50.13c0,0.405-0.638,0.736-1.417,0.736h-0.109c-0.78,0-1.417,0.427-1.417,0.95
					c0,0.522-0.019,1.283-0.042,1.691c-0.023,0.408-0.411,0.742-0.863,0.742s-0.821-0.302-0.821-0.67s0.017-1.029,0.038-1.467
					c0.021-0.438,0.096-1.432,0.169-2.208l0.01-0.107c0.073-0.776,0.187-1.677,0.253-2.003c0.067-0.326,0.2-0.806,0.296-1.068
					s0.812-0.477,1.592-0.477h1.073c0.78,0,1.417,0.334,1.417,0.742s-0.638,0.742-1.417,0.742h-0.287
					c-0.78,0-1.417,0.374-1.417,0.831s0.638,0.831,1.417,0.831h0.109C43.615,49.395,44.252,49.726,44.252,50.13z"/>
			</g>
		</g>
		<g>
			<g>
				<path fill="#003161" d="M54.436,46.249c0.55,0,0.974,0.637,0.941,1.416l-0.003,0.09c-0.033,0.779-0.032,1.763,0.001,2.188
					c0.034,0.425,0.093,1.409,0.132,2.188l0.036,0.703c0.039,0.778-0.338,1.416-0.838,1.416s-0.938-0.637-0.973-1.416L53.5,47.665
					C53.464,46.886,53.886,46.249,54.436,46.249z"/>
			</g>
		</g>
	</g>
</g>
</svg>
